# xmcd
#
# Track frame offsets: 
#        150
#        33907
#        86712
#        106095
#        181447
#
# Disc length: 2753 seconds
#
# Revision: 9
# Processed by: cddbd v1.5.2PL0 Copyright (c) Steve Scherf et al.
# Submitted via: ExactAudioCopy v1.3
#
DISCID=340abf05
DTITLE=Deep Purple - Made In Europe
DYEAR=1976
DGENRE=Hard Rock
TTITLE0=Burn
TTITLE1=Mistreated
TTITLE2=Lady Double Dealer
TTITLE3=You Fool No One
TTITLE4=Stormbringer
EXTD=YEAR: 1976
EXTT0=
EXTT1=
EXTT2=
EXTT3=
EXTT4=
PLAYORDER=
